<?xml version="1.0" encoding="UTF-8" standalone="no"?>
<svg
   xmlns:dc="http://purl.org/dc/elements/1.1/"
   xmlns:cc="http://creativecommons.org/ns#"
   xmlns:rdf="http://www.w3.org/1999/02/22-rdf-syntax-ns#"
   xmlns:svg="http://www.w3.org/2000/svg"
   xmlns="http://www.w3.org/2000/svg"
   id="svg8"
   version="1.1"
   viewBox="0 0 79.933212 18.106043"
   height="68.432289"
   width="302.10977">
  <defs
     id="defs2" />
  <metadata
     id="metadata5">
    <rdf:RDF>
      <cc:Work
         rdf:about="">
        <dc:format>image/svg+xml</dc:format>
        <dc:type
           rdf:resource="http://purl.org/dc/dcmitype/StillImage" />
        <dc:title></dc:title>
      </cc:Work>
    </rdf:RDF>
  </metadata>
  <g
     style="display:inline"
     transform="translate(-12.634949,-130.01434)"
     id="layer1">
    <path
       id="text43"
       transform="matrix(0.26458333,0,0,0.26458333,12.634949,130.01434)"
       d="m 62.578125,0 c 0.02431,0.82638883 0.03711,1.4826389 0.03711,1.96875 0,1.6770832 -0.07292,3.9611547 -0.21875,6.8535156 C 65.070095,8.7736545 67.549262,8.75 69.833984,8.75 c 2.211806,0 4.521485,0.023654 6.927735,0.072266 0,-0.923611 0.02365,-1.7256945 0.07227,-2.40625 l 0.21875,-4.5195312 C 77.07704,1.3860677 77.126302,0.75347217 77.199219,0 75.133247,0.04861111 72.726996,0.07226562 69.980469,0.07226562 67.987413,0.07226562 65.519097,0.04861111 62.578125,0 Z m -62.125,0.91210938 7,19.68749962 8.896484,25.628907 1.34961,4.449218 c 4.520833,-0.04861 7.594184,-0.07422 9.222656,-0.07422 1.75,0 4.666667,0.02561 8.75,0.07422 1.506944,-3.329861 2.868707,-6.210069 4.083984,-8.640625 l 12.578125,-24.9375 c 3.135417,-6.17361 5.942709,-11.5694444 8.421875,-16.18749962 -3.961805,0.0486111 -6.61046,0.0722656 -7.947265,0.0722656 -2.138889,0 -4.971789,-0.0236545 -8.496094,-0.0722656 -0.607639,1.55555542 -1.05599,2.66015632 -1.347656,3.31640622 -0.267361,0.65625 -0.511719,1.2395834 -0.730469,1.75 L 29.511719,33.833984 27.833984,38.025391 C 27.056207,35.13303 26.399957,32.788845 25.865234,30.990234 L 20.505859,13.744141 C 19.290582,9.9281687 18.464844,7.2923176 18.027344,5.8339844 17.711372,4.7159289 17.273871,3.0753037 16.714844,0.91210938 13.336372,0.96072048 10.857205,0.984375 9.2773438,0.984375 c -2.5763888,0 -5.5186635,-0.0236545 -8.8242188,-0.0722656 z m 215.833985,0 -0.40039,14.65624962 -1.42188,27.234375 -0.65625,7.837891 7.91016,-0.03711 c 2.09028,0 4.43642,0.02561 7.03711,0.07422 l 0.29102,-11.011718 1.3496,-27.5625 0.8379,-11.19140662 c -2.67362,0.0486111 -5.11632,0.0722656 -7.32813,0.0722656 -1.70139,0 -4.24067,-0.0236545 -7.61914,-0.0722656 z m 23.1875,0 -0.40039,14.65624962 -1.42188,27.234375 -0.65625,7.837891 7.91016,-0.03711 c 2.09028,0 4.43642,0.02561 7.03711,0.07422 l 0.29102,-11.011718 1.3496,-27.5625 0.8379,-11.19140662 c -2.67362,0.0486111 -5.11632,0.0722656 -7.32813,0.0722656 -1.70139,0 -4.24067,-0.0236545 -7.61914,-0.0722656 z M 100.02148,12.505859 c -3.232634,0 -5.979813,0.401042 -8.24023,1.203125 C 89.545139,14.486762 87.844401,15.75 86.677734,17.5 c -1.142361,1.75 -1.71289,3.63303 -1.71289,5.650391 0,1.142361 0.193142,2.248915 0.582031,3.318359 0.413194,1.069444 0.996528,2.066623 1.75,2.990234 0.777778,0.923611 1.92079,1.980903 3.427734,3.171875 1.53125,1.190973 3.294054,2.514323 5.28711,3.972657 0.899305,0.65625 1.469835,1.17947 1.71289,1.568359 0.267361,0.364583 0.400391,0.741971 0.400391,1.130859 0,0.4375 -0.169488,0.862197 -0.509766,1.275391 -0.340277,0.413194 -0.887152,0.728516 -1.640625,0.947266 -0.729166,0.21875 -1.689887,0.328125 -2.880859,0.328125 -1.434028,0 -3.001736,-0.21875 -4.703125,-0.65625 -1.701389,-0.461806 -3.730252,-1.154514 -6.087891,-2.078125 l 0.291016,2.625 c 0.21875,2.065972 0.377387,3.695746 0.474609,4.886718 0.09722,1.166667 0.193794,2.284072 0.291016,3.353516 2.819444,0.607639 5.287761,1.032335 7.402344,1.275391 2.138888,0.243055 3.912543,0.365234 5.322265,0.365234 2.090278,0 4.119146,-0.195096 6.087896,-0.583984 1.96874,-0.364584 3.79166,-1.031684 5.46874,-2.003907 1.70139,-0.972222 2.96658,-2.175347 3.79297,-3.609375 0.8507,-1.458333 1.27539,-3.051649 1.27539,-4.777343 0,-1.142361 -0.19509,-2.223308 -0.58398,-3.244141 -0.36458,-1.045139 -0.91146,-2.01671 -1.64062,-2.916016 -0.70487,-0.923611 -1.73655,-1.92079 -3.09766,-2.990234 -0.82639,-0.65625 -1.9694,-1.494792 -3.42774,-2.515625 -1.45833,-1.020833 -2.38259,-1.66428 -2.77148,-1.931641 -0.36458,-0.291666 -0.6799,-0.572482 -0.94727,-0.839843 -0.243051,-0.267361 -0.412539,-0.52257 -0.509761,-0.765625 -0.09722,-0.243056 -0.146485,-0.498264 -0.146485,-0.765625 0,-0.802084 0.424696,-1.396268 1.275396,-1.785157 0.87499,-0.388888 2.27322,-0.583984 4.19335,-0.583984 2.72223,0 5.55317,0.583333 8.49415,1.75 l -0.58204,-10.244141 c -5.25,-0.875 -9.56488,-1.3125 -12.94336,-1.3125 z m 91.58399,0 c -5.03125,0 -11.04688,0.765625 -18.04688,2.296875 -0.26736,1.944445 -0.46245,3.377171 -0.58398,4.300782 -0.12153,0.899305 -0.4132,2.552734 -0.875,4.958984 6.1493,-2.357639 11.31358,-3.537109 15.49414,-3.537109 1.50694,0 2.64996,0.255208 3.42773,0.765625 0.77778,0.486111 1.16602,1.191623 1.16602,2.115234 0,0.340278 -0.0601,0.668403 -0.18164,0.984375 -0.12153,0.291667 -0.32747,0.583333 -0.61914,0.875 -0.26736,0.267361 -0.63195,0.509766 -1.09375,0.728516 -0.4375,0.194444 -1.19228,0.438802 -2.26172,0.730468 -1.04514,0.267361 -2.199,0.52257 -3.46289,0.765625 -3.03819,0.583334 -5.55382,1.203125 -7.54688,1.859375 -1.96875,0.65625 -3.52365,1.359809 -4.66601,2.113282 -1.14236,0.729166 -2.13954,1.61697 -2.99024,2.662109 -0.85069,1.045139 -1.48329,2.115234 -1.89648,3.208984 -0.38889,1.09375 -0.58203,2.211155 -0.58203,3.353516 0,1.871528 0.53407,3.743707 1.60351,5.615234 1.09375,1.871528 2.63781,3.231337 4.63086,4.082032 2.01736,0.826388 4.53299,1.240234 7.54688,1.240234 1.87153,0 3.85113,-0.169488 5.94141,-0.509766 0.97222,-3.597222 1.81076,-6.331597 2.51562,-8.203125 -1.02083,0.340278 -1.82292,0.559028 -2.40625,0.65625 -0.58333,0.07292 -1.13021,0.109375 -1.64063,0.109375 -1.43402,0 -2.47851,-0.291666 -3.13476,-0.875 -0.65625,-0.583333 -0.98438,-1.288845 -0.98438,-2.115234 0,-0.534722 0.10938,-1.021484 0.32813,-1.458984 0.24305,-0.4375 0.63129,-0.862197 1.16601,-1.275391 0.55903,-0.413194 1.20443,-0.754123 1.9336,-1.021484 0.75347,-0.267361 1.78516,-0.595487 3.09766,-0.984375 1.31249,-0.388889 2.22395,-0.680556 2.73437,-0.875 0.53472,-0.194445 1.26389,-0.509766 2.1875,-0.947266 -0.41319,8.361111 -0.78863,13.879123 -1.12891,16.552734 2.57639,-0.04861 5.0063,-0.07422 7.29102,-0.07422 2.35764,0 4.72743,0.02561 7.10937,0.07422 0.19445,-7.729166 0.47331,-13.976345 0.83789,-18.740234 0.36459,-4.763889 0.54688,-7.826389 0.54688,-9.1875 0,-2.673611 -0.6671,-4.728082 -2.00391,-6.162109 -1.3368,-1.434028 -3.19618,-2.465712 -5.57812,-3.097657 -2.38195,-0.65625 -5.00695,-0.984375 -7.875,-0.984375 z M 62.068359,13.453125 c -0.07292,4.788194 -0.169487,8.993707 -0.291015,12.615234 -0.121528,3.621528 -0.267361,6.926433 -0.4375,9.916016 -0.145834,2.989583 -0.304471,5.445096 -0.47461,7.365234 -0.170139,1.920139 -0.425347,4.362848 -0.765625,7.328125 3.354167,-0.04861 6.064888,-0.07422 8.13086,-0.07422 2.090277,0 4.580295,0.02561 7.472656,0.07422 0,-2.479166 0.04926,-7.171441 0.146484,-14.074218 0.04861,-3.888889 0.157986,-7.571181 0.328125,-11.046875 0.194445,-3.475695 0.498915,-7.509766 0.91211,-12.103516 -3.232639,0.04861 -5.711806,0.07227 -7.4375,0.07227 -1.895833,0 -4.424263,-0.02366 -7.583985,-0.07227 z m 59.318361,0 c 0,2.017361 -0.0493,4.155599 -0.14649,6.416016 -0.14583,3.694444 -0.30447,7.061415 -0.47461,10.099609 l -0.58203,8.275391 c -0.0729,0.923611 -0.10937,1.605468 -0.10937,2.042968 0,1.798611 0.2296,3.377171 0.6914,4.738282 0.48612,1.361111 1.37392,2.57704 2.66211,3.646484 1.3125,1.069444 2.8201,1.822266 4.52149,2.259766 1.72569,0.461805 3.54861,0.693359 5.46875,0.693359 1.19097,0 2.35764,-0.08572 3.5,-0.255859 1.16667,-0.170139 2.1875,-0.39974 3.0625,-0.691407 0.8993,-0.315972 1.70139,-0.680555 2.40625,-1.09375 0.72917,-0.413194 1.39627,-0.887152 2.0039,-1.421875 0.60764,-0.559027 1.34961,-1.386718 2.22461,-2.480468 l 0.0371,4.996093 c 2.30903,-0.04861 4.60591,-0.07422 6.89063,-0.07422 1.84722,0 4.15495,0.02561 6.92578,0.07422 0.17014,-7.510416 0.4145,-14.049262 0.73047,-19.615234 0.31597,-5.565972 0.75347,-11.435764 1.3125,-17.609375 -2.28472,0.04861 -4.55794,0.07227 -6.81836,0.07227 -2.01736,0 -4.5931,-0.02366 -7.72852,-0.07227 l -0.29296,7.619141 c -0.17014,3.524305 -0.30317,6.003472 -0.4004,7.4375 -0.14583,1.968749 -0.35178,3.598524 -0.61914,4.886718 -0.19444,0.923611 -0.48611,1.785808 -0.875,2.587891 -0.31597,0.65625 -0.68055,1.215929 -1.09375,1.677734 -0.38889,0.4375 -0.81553,0.802084 -1.27734,1.09375 -0.53472,0.315973 -1.09245,0.558377 -1.67578,0.728516 -0.58333,0.170139 -1.16667,0.255859 -1.75,0.255859 -1.43403,0 -2.67361,-0.450304 -3.71875,-1.349609 -1.02083,-0.899305 -1.53125,-2.625651 -1.53125,-5.177734 v -1.53125 c 0.0243,-0.777778 0.12088,-2.223308 0.29101,-4.337891 l 1.13086,-13.890625 c -2.57638,0.04861 -4.93533,0.07227 -7.07422,0.07227 -2.11458,0 -4.67751,-0.02366 -7.6914,-0.07227 z m 136.64453,0 5.87109,17.208984 6.85352,20.744141 c -0.26736,0.972222 -0.53537,1.714193 -0.80274,2.224609 -0.26736,0.534723 -0.67925,1.165365 -1.23828,1.894532 -0.53472,0.729166 -1.03428,1.265191 -1.49609,1.605468 -0.46181,0.364584 -1.09245,0.667101 -1.89453,0.910157 -0.77778,0.243055 -1.61632,0.365234 -2.51563,0.365234 -0.85069,0 -1.87152,-0.13303 -3.0625,-0.400391 -1.16666,-0.267361 -2.51562,-0.766927 -4.04687,-1.496093 0.26736,1.409722 0.77778,5.019097 1.53125,10.828125 1.26389,0.291666 2.27192,0.486762 3.02539,0.583984 0.77778,0.121528 1.78581,0.230903 3.02539,0.328125 1.23958,0.121528 2.23676,0.181641 2.99023,0.181641 1.65278,0 3.2806,-0.169488 4.88477,-0.509766 1.45833,-0.315972 2.79644,-0.753472 4.01172,-1.3125 0.8993,-0.413194 1.73785,-0.923611 2.51562,-1.53125 0.82639,-0.65625 1.59202,-1.421875 2.29688,-2.296875 0.75347,-0.972222 1.54275,-2.284722 2.36914,-3.9375 l 12.72461,-29.494141 7.03516,-15.896484 c -3.5,0.04861 -5.92991,0.07227 -7.29102,0.07227 -1.55556,0 -3.85243,-0.02366 -6.89063,-0.07227 l -3.9375,10.171875 -2.36914,6.634766 c -0.48611,1.385416 -0.88715,2.577691 -1.20312,3.574218 -0.31597,0.996528 -0.59679,1.882379 -0.83985,2.660157 l -0.76562,2.917968 c -0.29167,-2.211805 -0.59418,-4.034722 -0.91016,-5.46875 -0.55902,-2.600694 -1.47048,-6.199219 -2.73437,-10.792968 -1.23958,-4.59375 -2.09093,-7.825738 -2.55274,-9.697266 -2.94097,0.04861 -5.2615,0.07227 -6.96289,0.07227 -1.45833,0 -3.99956,-0.02366 -7.62109,-0.07227 z"
       style="font-style:normal;font-weight:normal;font-size:19.7555542px;line-height:1.25;font-family:sans-serif;letter-spacing:0px;word-spacing:0px;fill:#ffffff;fill-opacity:1;stroke:none;stroke-width:0.99999994" />
  </g>
</svg>
